<?xml version="1.0" encoding="UTF-8" standalone="no"?>
<!-- Created with Inkscape (http://www.inkscape.org/) -->

<svg
   xmlns:dc="http://purl.org/dc/elements/1.1/"
   xmlns:cc="http://creativecommons.org/ns#"
   xmlns:rdf="http://www.w3.org/1999/02/22-rdf-syntax-ns#"
   xmlns:svg="http://www.w3.org/2000/svg"
   xmlns="http://www.w3.org/2000/svg"
   xmlns:sodipodi="http://sodipodi.sourceforge.net/DTD/sodipodi-0.dtd"
   xmlns:inkscape="http://www.inkscape.org/namespaces/inkscape"
   width="75"
   height="35"
   id="svg3132"
   version="1.1"
   inkscape:version="0.48.3.1 r9886"
   sodipodi:docname="github.svg"
   inkscape:export-filename="/mnt/data1/www/ccplot/img/github.png"
   inkscape:export-xdpi="72"
   inkscape:export-ydpi="72">
  <defs
     id="defs3134">
    <inkscape:perspective
       sodipodi:type="inkscape:persp3d"
       inkscape:vp_x="0 : 526.18109 : 1"
       inkscape:vp_y="0 : 1000 : 0"
       inkscape:vp_z="744.09448 : 526.18109 : 1"
       inkscape:persp3d-origin="372.04724 : 350.78739 : 1"
       id="perspective3140" />
    <inkscape:perspective
       id="perspective3105"
       inkscape:persp3d-origin="0.5 : 0.33333333 : 1"
       inkscape:vp_z="1 : 0.5 : 1"
       inkscape:vp_y="0 : 1000 : 0"
       inkscape:vp_x="0 : 0.5 : 1"
       sodipodi:type="inkscape:persp3d" />
    <inkscape:perspective
       id="perspective3981"
       inkscape:persp3d-origin="0.5 : 0.33333333 : 1"
       inkscape:vp_z="1 : 0.5 : 1"
       inkscape:vp_y="0 : 1000 : 0"
       inkscape:vp_x="0 : 0.5 : 1"
       sodipodi:type="inkscape:persp3d" />
  </defs>
  <sodipodi:namedview
     id="base"
     pagecolor="#ffffff"
     bordercolor="#666666"
     borderopacity="1.0"
     inkscape:pageopacity="0.0"
     inkscape:pageshadow="2"
     inkscape:zoom="5.6"
     inkscape:cx="27.267332"
     inkscape:cy="23.599537"
     inkscape:document-units="px"
     inkscape:current-layer="layer1"
     showgrid="false"
     inkscape:window-width="1651"
     inkscape:window-height="1028"
     inkscape:window-x="29"
     inkscape:window-y="0"
     inkscape:window-maximized="1" />
  <metadata
     id="metadata3137">
    <rdf:RDF>
      <cc:Work
         rdf:about="">
        <dc:format>image/svg+xml</dc:format>
        <dc:type
           rdf:resource="http://purl.org/dc/dcmitype/StillImage" />
        <dc:title></dc:title>
      </cc:Work>
    </rdf:RDF>
  </metadata>
  <g
     inkscape:label="Layer 1"
     inkscape:groupmode="layer"
     id="layer1"
     transform="translate(-802.51114,-265.12076)">
    <g
       style="fill:#2e3436;fill-opacity:1;stroke:none"
       id="github"
       class="collegiate-regular"
       transform="matrix(0.29017228,0,0,0.29017228,805.53915,267.76637)"
       inkscape:export-xdpi="71.050003"
       inkscape:export-ydpi="71.050003">
      <path
         style="fill:#2e3436;fill-opacity:1;stroke:none"
         d="m 30.908,28.692 c 3.732,0 8.047,-0.933 12.946,-2.799 v 12.013 c -1.089,0.389 -2.644,0.816 -4.666,1.283 0.622,1.788 0.933,3.46 0.933,5.015 0,4.977 -1.497,9.311 -4.49,13.004 -2.993,3.693 -6.862,5.891 -11.605,6.59 -3.11,0.467 -4.665,2.139 -4.665,5.016 0,1.011 0.505,2.021 1.516,3.032 1.322,1.478 3.266,2.411 5.832,2.8 11.12,1.71 16.679,6.337 16.679,13.879 0,12.053 -7.192,18.079 -21.577,18.079 -5.91,0 -10.77,-1.05 -14.579,-3.149 C 2.41,100.815 0,96.656 0,90.98 0,84.449 3.616,79.978 10.847,77.568 V 77.335 C 8.203,75.702 6.882,73.214 6.882,69.87 c 0,-4.354 1.244,-7.076 3.732,-8.164 V 61.473 C 8.126,60.618 5.909,58.673 3.966,55.641 1.788,52.374 0.7,48.875 0.7,45.143 c 0,-5.599 1.983,-10.264 5.948,-13.996 3.81,-3.499 8.359,-5.249 13.646,-5.249 3.81,0 7.348,0.933 10.614,2.799 z m 0.467,61.35 c 0,-3.966 -3.266,-5.948 -9.797,-5.948 -6.298,0 -9.447,2.061 -9.447,6.182 0,4.043 3.421,6.064 10.264,6.064 5.986,0 8.98,-2.099 8.98,-6.298 z M 13.413,45.254 c 0,5.365 2.449,8.048 7.348,8.048 4.743,0 7.115,-2.722 7.115,-8.165 0,-2.255 -0.544,-4.199 -1.633,-5.832 -1.322,-1.788 -3.149,-2.683 -5.482,-2.683 -4.899,10e-4 -7.348,2.878 -7.348,8.632 z"
         id="path4079"
         inkscape:connector-curvature="0" />
      <path
         style="fill:#2e3436;fill-opacity:1;stroke:none"
         d="m 56.222,17.378 c -2.255,0 -4.179,-0.855 -5.773,-2.566 -1.594,-1.71 -2.391,-3.732 -2.391,-6.065 0,-2.411 0.797,-4.471 2.391,-6.182 C 52.043,0.855 53.967,0 56.222,0 c 2.177,0 4.063,0.855 5.657,2.566 1.594,1.711 2.391,3.771 2.391,6.182 0,2.333 -0.797,4.354 -2.391,6.065 -1.594,1.71 -3.48,2.565 -5.657,2.565 z"
         id="path4081"
         inkscape:connector-curvature="0" />
      <path
         style="fill:#2e3436;fill-opacity:1;stroke:none"
         d="m 49.574,78.262 c 0.155,-1.555 0.233,-4.198 0.233,-7.931 V 34.057 c 0,-3.654 -0.078,-6.182 -0.233,-7.581 h 13.18 c -0.156,1.478 -0.233,3.927 -0.233,7.348 v 35.807 c 0,3.966 0.078,6.843 0.233,8.631 h -13.18 z"
         id="path4083"
         inkscape:connector-curvature="0" />
      <path
         style="fill:#2e3436;fill-opacity:1;stroke:none"
         d="M 86.888,26.476 H 97.035 V 37.79 c -0.389,0 -1.108,-0.039 -2.158,-0.117 -1.05,-0.078 -2.041,-0.117 -2.974,-0.117 H 86.888 V 59.25 c 0,5.21 1.71,7.814 5.132,7.814 2.411,0 4.587,-0.66 6.532,-1.982 v 11.663 c -2.877,1.556 -6.337,2.333 -10.381,2.333 -5.676,0 -9.603,-2.021 -11.78,-6.064 -1.633,-3.033 -2.45,-7.814 -2.45,-14.347 V 37.79 h 0.117 v -0.233 l -1.75,-0.116 c -1.011,0 -2.333,0.116 -3.965,0.35 V 26.476 h 5.715 v -4.549 c 0,-2.177 -0.117,-3.927 -0.35,-5.249 h 13.529 c -0.233,1.478 -0.35,3.149 -0.35,5.015 v 4.783 z"
         id="path4085"
         inkscape:connector-curvature="0" />
      <path
         style="fill:#2e3436;fill-opacity:1;stroke:none"
         d="m 127.86,26.126 c -3.343,0 -6.842,1.167 -10.497,3.499 V 9.214 c 0,-4.432 0.078,-7.348 0.233,-8.748 H 104.3 c 0.233,1.244 0.35,4.16 0.35,8.748 v 61.7 c 0,3.576 -0.117,6.026 -0.35,7.348 h 13.53 c 0,-0.233 -0.078,-1.186 -0.233,-2.857 -0.155,-1.672 -0.233,-3.169 -0.233,-4.49 V 42.222 c 2.722,-2.566 5.365,-3.849 7.931,-3.849 2.955,0 5.21,1.477 6.765,4.432 1.166,2.333 1.75,5.249 1.75,8.748 l -0.117,15.745 c 0,2.645 -0.194,6.299 -0.583,10.964 h 14.112 c -0.311,-1.943 -0.466,-5.521 -0.466,-10.73 V 51.553 c 0,-6.765 -1.516,-12.519 -4.549,-17.262 -3.42,-5.443 -8.2,-8.165 -14.34,-8.165 z"
         id="path4087"
         inkscape:connector-curvature="0" />
      <path
         style="fill:#2e3436;fill-opacity:1;stroke:none"
         d="m 169.15,78.729 c -6.143,0 -10.691,-2.722 -13.646,-8.165 -2.333,-4.432 -3.499,-10.225 -3.499,-17.378 V 37.207 c 0,-5.288 -0.155,-8.864 -0.466,-10.73 h 13.996 c -0.233,1.71 -0.389,5.365 -0.467,10.964 l -0.116,15.746 c 0,4.432 0.505,7.62 1.516,9.563 1.167,2.411 3.305,3.616 6.415,3.616 2.177,0 4.626,-1.283 7.348,-3.849 V 33.824 c 0,-1.322 -0.078,-2.838 -0.233,-4.549 -0.156,-1.711 -0.233,-2.644 -0.233,-2.799 h 13.529 c -0.155,1.322 -0.233,3.771 -0.233,7.348 v 35.69 c 0,4.587 0.078,7.503 0.233,8.747 h -12.72 v -4.198 c -3.58,3.11 -7.39,4.666 -11.43,4.666 z"
         id="path4089"
         inkscape:connector-curvature="0" />
      <path
         style="fill:#2e3436;fill-opacity:1;stroke:none"
         d="m 221.64,78.611 c -4.198,0 -7.697,-1.516 -10.497,-4.548 v 4.198 H 198.78 c 0.233,-1.321 0.351,-3.771 0.351,-7.348 v -61.7 c 0,-4.588 -0.117,-7.503 -0.351,-8.748 h 13.297 c -0.156,1.399 -0.233,4.315 -0.233,8.748 v 20.294 c 3.576,-2.255 7.076,-3.383 10.497,-3.383 6.143,0 10.964,2.722 14.463,8.165 2.954,4.743 4.432,10.497 4.432,17.262 0,6.92 -1.555,12.946 -4.665,18.078 -3.74,5.989 -8.72,8.982 -14.94,8.982 z m -1.75,-40.238 c -2.566,0 -5.249,1.283 -8.048,3.849 V 62.4 c 2.488,2.41 4.938,3.616 7.348,3.616 3.032,0 5.326,-1.672 6.882,-5.016 1.244,-2.644 1.866,-5.793 1.866,-9.447 0,-8.787 -2.68,-13.18 -8.05,-13.18 z"
         id="path4091"
         inkscape:connector-curvature="0" />
    </g>
  </g>
</svg>
